# xmcd
#
# Track frame offsets:
#	150
#	16117
#	30944
#	43027
#	59583
#	75102
#	92390
#	108013
#	120830
#	138694
#	155939
#	173512
#	186832
#	203059
#	218486
#	231595
#
# Disc length: 3239 seconds
#
# Revision: 0
# Processed by: cddbd v1.5.2PL0 Copyright (c) Steve Scherf et al.
# Submitted via: audiograbber 1.83.01
#
DISCID=c00ca510
DTITLE=Various Artist - Hott Country 137
DYEAR=2007
DGENRE=Country
TTITLE0=Toby Keith - Love Me If You Can
TTITLE1=Jason Blaine - Rock In My Boot
TTITLE2=Big Mike Callan - Shake What Your Mama Gave You
TTITLE3=Reba McEntire Feat Kelly Clarkson - Because Of You
TTITLE4=Josh Turner - Firecracker
TTITLE5=Brad Pasley - On line
TTITLE6=Emerson Drive - Testify
TTITLE7=Michelle Wright - Riding Around The Sun
TTITLE8=Rascal Flatts - Take Me There
TTITLE9=Sugarland - Everyday America
TTITLE10=Pat Green - Way Back Texas
TTITLE11=Emerson Drive - Countrified Soul
TTITLE12=Montgomery Gentry - What Do Ya Thank Of That
TTITLE13=Shaye - So Far Gone (country radio edit)
TTITLE14=Danielle Price - Bad For Me
TTITLE15=Travis Tritt - Here's A Quater ( 1983 )
EXTD=July 2007
EXTT0=
EXTT1=
EXTT2=
EXTT3=
EXTT4=
EXTT5=
EXTT6=
EXTT7=
EXTT8=
EXTT9=
EXTT10=
EXTT11=
EXTT12=
EXTT13=
EXTT14=
EXTT15=
PLAYORDER=
